<svg width="728" height="510" viewBox="0 0 728 510" fill="none" xmlns="http://www.w3.org/2000/svg">
<path d="M16.1306 332.699V302.542L133.954 133.521H182.346V297.983H214.958V332.699H182.346V386H143.072V332.699H16.1306ZM144.825 174.198L62.0678 297.983H144.825V174.198ZM516.446 332.699V302.542L634.269 133.521H682.661V297.983H715.273V332.699H682.661V386H643.387V332.699H516.446ZM645.14 174.198L562.383 297.983H645.14V174.198Z" fill="#7A07E5"/>
<path d="M333.061 242.047C336.33 242.047 339.464 240.79 341.775 238.553C344.086 236.315 345.384 233.281 345.384 230.117C345.384 226.953 344.086 223.918 341.775 221.681C339.464 219.444 336.33 218.187 333.061 218.187C329.793 218.187 326.659 219.444 324.348 221.681C322.037 223.918 320.738 226.953 320.738 230.117C320.738 233.281 322.037 236.315 324.348 238.553C326.659 240.79 329.793 242.047 333.061 242.047ZM394.676 313.627C394.676 307.299 392.08 301.23 387.458 296.755C382.836 292.281 376.567 289.767 370.03 289.767C363.494 289.767 357.225 292.281 352.603 296.755C347.981 301.23 345.384 307.299 345.384 313.627H320.738C320.738 300.971 325.932 288.833 335.176 279.884C344.42 270.935 356.957 265.907 370.03 265.907C383.103 265.907 395.641 270.935 404.885 279.884C414.129 288.833 419.323 300.971 419.323 313.627H394.676ZM419.323 230.117C419.323 233.281 418.024 236.315 415.713 238.553C413.402 240.79 410.268 242.047 406.999 242.047C403.731 242.047 400.597 240.79 398.286 238.553C395.975 236.315 394.676 233.281 394.676 230.117C394.676 226.953 395.975 223.918 398.286 221.681C400.597 219.444 403.731 218.187 406.999 218.187C410.268 218.187 413.402 219.444 415.713 221.681C418.024 223.918 419.323 226.953 419.323 230.117Z" fill="#7A07E5"/>
<path fill-rule="evenodd" clip-rule="evenodd" d="M500.303 250.551C500.303 318.268 443.603 373.161 373.654 373.161C303.706 373.161 247.005 318.268 247.005 250.551C247.005 182.833 303.706 127.941 373.654 127.941C443.603 127.941 500.303 182.833 500.303 250.551ZM474.973 250.551C474.973 276.566 464.299 301.515 445.298 319.91C426.297 338.305 400.526 348.639 373.654 348.639C346.783 348.639 321.012 338.305 302.011 319.91C283.01 301.515 272.335 276.566 272.335 250.551C272.335 224.536 283.01 199.587 302.011 181.192C321.012 162.797 346.783 152.463 373.654 152.463C400.526 152.463 426.297 162.797 445.298 181.192C464.299 199.587 474.973 224.536 474.973 250.551Z" fill="#7A07E5"/>
</svg>
