<svg width="150" height="31" viewBox="0 0 150 31" fill="none" xmlns="http://www.w3.org/2000/svg">
<g clip-path="url(#clip0_320_1307)">
<path d="M26.8884 0.460449V30.531H18.5336V18.4575H8.34813V30.531H0V0.460449H8.34813V11.7877H18.5336V0.460449H26.8884Z" fill="#7A07E5"/>
<path d="M63.9557 30.5307L57.9642 19.4366H57.0655V30.5307H48.744V0.460105H61.912C64.0279 0.397269 66.1293 0.828428 68.0499 1.71943C69.6247 2.47123 70.9426 3.67199 71.8378 5.17092C72.6984 6.66982 73.1399 8.373 73.116 10.1016C73.1531 12.0336 72.562 13.9254 71.4317 15.4921C70.2125 17.1243 68.4794 18.2979 66.5121 18.8236L73.2891 30.5573L63.9557 30.5307ZM57.0921 13.7263H61.2263C62.1496 13.8007 63.0659 13.5141 63.7826 12.9268C64.0814 12.6178 64.3118 12.2491 64.4586 11.845C64.6054 11.4409 64.6654 11.0103 64.6347 10.5814C64.6642 10.1549 64.6015 9.72701 64.451 9.3269C64.3005 8.9268 64.0658 8.5638 63.7627 8.26259C63.0599 7.6613 62.1484 7.36198 61.2263 7.42971H57.0921V13.7263Z" fill="#7A07E5"/>
<path d="M87.0629 7.15686V12.0609H96.6759V18.4175H87.0895V23.8346H97.954V30.4977H78.7014V0.460449H97.9207V7.15686H87.0629Z" fill="#7A07E5"/>
<path d="M113.698 24.1344H123.018V30.531H105.33V0.460449H113.685L113.698 24.1344Z" fill="#7A07E5"/>
<path d="M149.993 0.460449L139.428 20.9761V30.531H131.034V20.9761L120.462 0.460449H130.008L135.288 12.0609L140.613 0.460449H149.993Z" fill="#7A07E5"/>
<path d="M35.383 6.08417C35.9422 6.53726 36.4881 6.97036 37.0207 7.41679C37.1175 7.53177 37.2383 7.62419 37.3746 7.68759C37.5108 7.75099 37.6593 7.78383 37.8096 7.78383C37.9598 7.78383 38.1083 7.75099 38.2445 7.68759C38.3808 7.62419 38.5016 7.53177 38.5984 7.41679L40.276 6.04419C40.3692 6.54392 40.4491 7.00368 40.529 7.46343C40.9418 9.93766 41.3567 12.4097 41.7739 14.8795C42.1134 16.8784 42.4396 18.8773 42.7792 20.8763C42.8015 21.0614 42.7691 21.2491 42.686 21.416C41.2302 24.3344 39.7657 27.2506 38.2922 30.1646C38.2602 30.2658 38.1968 30.3542 38.1112 30.4169C38.0256 30.4796 37.9223 30.5135 37.8162 30.5135C37.7101 30.5135 37.6068 30.4796 37.5212 30.4169C37.4357 30.3542 37.3722 30.2658 37.3402 30.1646L33.4324 22.4021C33.2793 22.1023 33.1462 21.7958 32.9731 21.5092C32.8463 21.2799 32.8084 21.0119 32.8666 20.7563C33.1994 18.8373 33.5323 16.9184 33.8452 14.9994L35.3431 6.14414L35.383 6.08417Z" fill="#7A07E5"/>
<path d="M42.3065 3.65207C42.2368 3.79306 42.1471 3.92323 42.0402 4.03853C40.7554 5.09796 39.4705 6.14407 38.179 7.19684C38.1336 7.24588 38.0784 7.285 38.0172 7.31175C37.9559 7.33851 37.8897 7.35232 37.8229 7.35232C37.756 7.35232 37.6899 7.33851 37.6286 7.31175C37.5673 7.285 37.5122 7.24588 37.4667 7.19684C36.1797 6.1574 34.8993 5.11351 33.6255 4.06518C33.5574 4.02629 33.4998 3.97125 33.4579 3.90491C33.416 3.83856 33.391 3.76294 33.3851 3.68466C33.3792 3.60639 33.3925 3.52786 33.424 3.45596C33.4555 3.38406 33.5041 3.32098 33.5656 3.27227L35.6892 0.933528C35.7553 0.847336 35.8413 0.778601 35.94 0.73331C36.0386 0.688019 36.1468 0.667544 36.2551 0.673667C37.2936 0.673667 38.3388 0.673667 39.3773 0.673667C39.5818 0.686957 39.7751 0.77188 39.9232 0.913539C40.6422 1.6798 41.3345 2.46604 42.0336 3.25229C42.1347 3.37833 42.2259 3.51199 42.3065 3.65207Z" fill="#7A07E5"/>
</g>
<defs>
<clipPath id="clip0_320_1307">
<rect width="150" height="30.0706" fill="white" transform="translate(0 0.460449)"/>
</clipPath>
</defs>
</svg>
