<svg width="22" height="22" viewBox="0 0 22 22" fill="none" xmlns="http://www.w3.org/2000/svg">
<path d="M10.7904 1.41602C15.5077 1.41621 19.3321 5.17912 19.3324 9.82129C19.3324 14.7222 13.9841 18.7927 11.7513 20.2783C11.1632 20.6696 10.4165 20.6696 9.82845 20.2783C7.59559 18.7926 2.24837 14.7221 2.24837 9.82129C2.24861 5.179 6.07284 1.41602 10.7904 1.41602ZM10.7904 7.16699C9.30072 7.16699 8.09236 8.35544 8.09212 9.82129C8.09212 11.2873 9.30057 12.4766 10.7904 12.4766C12.28 12.4764 13.4876 11.2872 13.4876 9.82129C13.4874 8.35556 12.2798 7.16719 10.7904 7.16699Z" fill="#7109D1"/>
</svg>
