<svg width="22" height="22" viewBox="0 0 22 22" fill="none" xmlns="http://www.w3.org/2000/svg">
<path d="M14.2608 14.4056L13.7135 15.2266C13.6042 15.3905 13.4597 15.5304 13.2693 15.5807C12.6455 15.7455 10.9896 15.8199 8.46845 13.2988C5.9473 10.7776 6.02171 9.12165 6.18653 8.4979C6.23685 8.30748 6.37668 8.16299 6.54056 8.05373L7.3616 7.50637C7.97288 7.09885 8.13807 6.27295 7.73054 5.66166L6.17987 3.33566C5.82417 2.80211 5.13845 2.59826 4.54904 2.85086L3.84953 3.15065C3.31814 3.37839 2.88467 3.78711 2.62612 4.30421C2.41011 4.73623 2.24268 5.19118 2.22 5.67366C2.14851 7.19414 2.48192 10.9402 6.65449 15.1127C10.8271 19.2853 14.5731 19.6187 16.0935 19.5472C16.576 19.5245 17.031 19.3571 17.463 19.1411C17.9801 18.8825 18.3888 18.4491 18.6165 17.9177L18.9163 17.2182C19.1689 16.6288 18.9651 15.943 18.4315 15.5873L16.1055 14.0367C15.4943 13.6291 14.6683 13.7943 14.2608 14.4056Z" fill="#7109D1"/>
</svg>
