<svg width="26" height="26" viewBox="0 0 26 26" fill="none" xmlns="http://www.w3.org/2000/svg">
<path d="M22.0669 3.79094C21.9594 3.68603 21.8237 3.61339 21.6755 3.58157C21.5274 3.54974 21.3731 3.56006 21.2307 3.6113L3.71095 9.85954C3.55986 9.91574 3.42977 10.0157 3.33798 10.1461C3.24618 10.2766 3.19702 10.4313 3.19702 10.5898C3.19702 10.7483 3.24618 10.903 3.33798 11.0335C3.42977 11.1639 3.55986 11.2639 3.71095 11.3201L10.5516 13.999L15.6005 9.03165L16.7234 10.1329L11.6506 15.1081L14.3901 21.8171C14.4491 21.9624 14.5512 22.087 14.6833 22.1747C14.8153 22.2625 14.9712 22.3093 15.1307 22.3091C15.2916 22.3059 15.4478 22.2549 15.5785 22.1629C15.7093 22.0709 15.8086 21.9421 15.8633 21.7937L22.2341 4.61102C22.2884 4.47284 22.3015 4.32238 22.2719 4.17718C22.2423 4.03198 22.1712 3.89803 22.0669 3.79094Z" fill="#7109D1"/>
</svg>
